<svg width="767" height="767" viewBox="0 0 767 767" fill="none" xmlns="http://www.w3.org/2000/svg">
<mask id="mask0_2005_23" style="mask-type:alpha" maskUnits="userSpaceOnUse" x="0" y="0" width="767" height="767">
<circle cx="383.5" cy="383.5" r="383.5" fill="#D9D9D9"/>
</mask>
<g mask="url(#mask0_2005_23)">
<path d="M587 0H180C80.5887 0 0 80.5887 0 180V587C0 686.411 80.5887 767 180 767H587C686.411 767 767 686.411 767 587V180C767 80.5887 686.411 0 587 0Z" fill="white"/>
<path d="M767 0H0V767H767V0Z" fill="url(#paint0_linear_2005_23)"/>
<path d="M331.5 632C351.658 632 368 615.658 368 595.5C368 575.342 351.658 559 331.5 559C311.342 559 295 575.342 295 595.5C295 615.658 311.342 632 331.5 632Z" fill="white"/>
<g clip-path="url(#clip0_2005_23)">
<path d="M282.681 643.317C255.995 616.632 255.995 573.366 282.681 546.68" stroke="white" stroke-width="27.3333" stroke-linecap="round"/>
<path d="M244.026 681.971C195.991 633.935 195.991 556.056 244.026 508.022" stroke="white" stroke-width="27.3333" stroke-linecap="round"/>
<path d="M379.319 546.195C406.004 572.882 406.004 616.148 379.319 642.833" stroke="white" stroke-width="27.3333" stroke-linecap="round"/>
<path d="M417.975 507.149C466.009 555.184 466.009 633.063 417.975 681.097" stroke="white" stroke-width="27.3333" stroke-linecap="round"/>
<path d="M331 608.667C338.548 608.667 344.667 602.548 344.667 595C344.667 587.452 338.548 581.333 331 581.333C323.452 581.333 317.333 587.452 317.333 595C317.333 602.548 323.452 608.667 331 608.667Z" stroke="white" stroke-width="27.3333" stroke-linecap="round"/>
</g>
<line x1="316" y1="416" x2="316" y2="537" stroke="#00FF85" stroke-width="18" stroke-linecap="round"/>
<line x1="347" y1="442" x2="347" y2="537" stroke="#00FF85" stroke-width="18" stroke-linecap="round"/>
<path d="M562.298 134.483C580.96 134.483 585.872 148.598 580.352 181.742C574.035 219.642 555.838 345.124 541.324 423.236C535.77 453.127 525.759 466.015 511.189 466.015C503.18 466.015 493.799 462.121 483.024 455.008C468.422 445.361 394.701 396.609 378.694 385.159C364.091 374.727 343.947 362.171 369.213 337.457C378.207 328.652 437.137 272.377 483.046 228.58C487.947 223.901 483.843 216.766 478.4 216.766C477.161 216.766 475.845 217.142 474.561 217.993C412.678 259.035 326.866 315.996 315.947 323.419C305.029 330.831 294.387 335.588 280.204 335.588C272.958 335.588 264.783 334.349 255.17 331.583C233.676 325.41 212.69 318.054 204.515 315.244C173.042 304.447 180.509 290.453 211.075 277.001C333.625 223.093 492.206 157.36 514.099 148.267C535.427 139.405 551.269 134.483 562.298 134.483ZM562.298 101.295C547.165 101.295 528.945 106.174 501.388 117.601L498.08 118.973C380.431 167.825 273.755 213.159 197.711 246.612C185.83 251.845 149.689 267.742 151.094 300.995C151.691 315.343 159.59 334.902 193.751 346.617L196.273 347.48C205.809 350.766 225.666 357.613 246.021 363.465C258.411 367.027 269.607 368.753 280.215 368.753C298.623 368.753 312.883 363.499 324.034 357.381C323.979 359.239 324.023 361.109 324.167 362.99C326.18 388.566 345.96 402.593 357.775 410.979L359.423 412.151C376.868 424.63 455.822 476.79 464.76 482.686C481.586 493.793 496.775 499.18 511.211 499.18C533.912 499.18 563.238 487.056 573.969 429.287C584.158 374.495 595.928 297.953 604.524 242.065C608.185 218.215 611.194 198.656 613.108 187.184C616.969 164.02 618.739 137.779 602.621 118.763C595.851 110.798 583.372 101.295 562.298 101.295Z" fill="white"/>
</g>
<defs>
<linearGradient id="paint0_linear_2005_23" x1="573.716" y1="25.311" x2="171.041" y2="754.728" gradientUnits="userSpaceOnUse">
<stop stop-color="#223231"/>
<stop offset="1"/>
</linearGradient>
<clipPath id="clip0_2005_23">
<rect width="328" height="328" fill="white" transform="translate(167 431)"/>
</clipPath>
</defs>
</svg>
